<?xml version="1.0" encoding="utf-8"?>
<!-- Generator: Adobe Illustrator 19.0.0, SVG Export Plug-In . SVG Version: 6.00 Build 0)  -->
<svg version="1.1" id="Layer_1" xmlns="http://www.w3.org/2000/svg" xmlns:xlink="http://www.w3.org/1999/xlink" x="0px" y="0px"
	 viewBox="-345 257 100 100" style="enable-background:new -345 257 100 100;" xml:space="preserve">
<style type="text/css">
	.st0{display:none;}
	.st1{fill:#FFFFFF;}
</style>
<g>
	<circle class="st0" cx="-295" cy="307" r="45"/>
	<path id="Codepen_1_" class="st1" d="M-275.9,301C-275.9,300.9-275.9,300.9-275.9,301c0-0.1,0-0.2,0-0.2v-0.1v-0.1v-0.1
		c0,0,0-0.1-0.1-0.1v-0.1c0,0,0-0.1-0.1-0.1c0,0,0,0-0.1-0.1l-0.1-0.1c0,0,0,0-0.1-0.1l-0.1-0.1c0,0-0.1,0-0.1-0.1l0,0l-17.4-11.6
		c-0.6-0.4-1.3-0.4-1.8,0l-17.4,11.6l0,0c0,0,0,0-0.1,0.1l-0.1,0.1c0,0,0,0-0.1,0.1l-0.1,0.1c0,0,0,0-0.1,0.1c0,0,0,0.1-0.1,0.1v0.1
		c0,0,0,0.1-0.1,0.1v0.1v0.1v0.1v0.1c0,0,0,0,0,0.1s0,0.1,0,0.2v11.6c0,0.1,0,0.1,0,0.2c0,0,0,0,0,0.1v0.1v0.1v0.1v0.1
		c0,0,0,0.1,0.1,0.1v0.1c0,0,0,0.1,0.1,0.1c0,0,0,0,0.1,0.1l0.1,0.1c0,0,0,0,0.1,0.1l0.1,0.1c0,0,0,0,0.1,0.1l0,0l17.4,11.6
		c0.3,0.2,0.6,0.3,0.9,0.3s0.6-0.1,0.9-0.3l17.4-11.6l0,0c0,0,0,0,0.1-0.1l0.1-0.1c0,0,0,0,0.1-0.1l0.1-0.1c0,0,0,0,0.1-0.1
		c0,0,0-0.1,0.1-0.1v-0.1c0,0,0-0.1,0.1-0.1v-0.1v-0.1v-0.1v-0.1c0,0,0,0,0-0.1s0-0.1,0-0.2v-11.6C-275.9,301.1-275.9,301-275.9,301
		z M-293.4,292.6l12.9,8.6l-5.7,3.8l-7.1-4.8L-293.4,292.6L-293.4,292.6z M-296.6,292.6v7.6l-7.1,4.8l-5.7-3.8L-296.6,292.6z
		 M-310.8,304.3l4.1,2.7l-4.1,2.7V304.3z M-296.6,321.4l-12.9-8.6l5.7-3.8l7.1,4.8L-296.6,321.4L-296.6,321.4z M-295,310.9l-5.8-3.9
		l5.8-3.9l5.8,3.9L-295,310.9z M-293.4,321.4v-7.7l7.1-4.8l5.7,3.8L-293.4,321.4z M-279.2,309.7l-4.1-2.7l4.1-2.7V309.7z"/>
</g>
</svg>
