<?xml version="1.0" encoding="utf-8"?>
<!-- Generator: Adobe Illustrator 19.0.0, SVG Export Plug-In . SVG Version: 6.00 Build 0)  -->
<svg version="1.1" id="Layer_1" xmlns="http://www.w3.org/2000/svg" xmlns:xlink="http://www.w3.org/1999/xlink" x="0px" y="0px"
	 viewBox="-345 257 100 100" style="enable-background:new -345 257 100 100;" xml:space="preserve">
<style type="text/css">
	.st0{display:none;}
	.st1{fill:#FFFFFF;}
</style>
<g>
	<circle class="st0" cx="-295" cy="307" r="45"/>
	<path class="st1" d="M-286.6,288.8c0,2.1,0,4.1,0,6.2c-0.5,0-1,0-1.4,0c-0.9,0-1.7,0-2.6,0c-1,0-1.6,0.5-1.6,1.4
		c-0.1,1.4,0,2.7,0,4.1c1.9,0,3.8,0,5.8,0c-0.2,2.2-0.4,4.3-0.7,6.5c-1.7,0-3.4,0-5.1,0c0,6.1,0,12.2,0,18.3c-2.5,0-5.1,0-7.6,0
		c0-6.1,0-12.1,0-18.2c-1.2,0-2.4,0-3.6,0c0-2.2,0-4.3,0-6.5c1.2,0,2.4,0,3.6,0c0-0.2,0-0.4,0-0.5c0-1.5-0.1-3,0.1-4.5
		c0.2-2.4,1.2-4.5,3.4-5.8c1.1-0.7,2.4-0.9,3.7-1C-290.6,288.8-288.6,288.8-286.6,288.8C-286.8,288.7-286.7,288.8-286.6,288.8z"/>
</g>
</svg>
