<?xml version="1.0" encoding="utf-8"?>
<!-- Generator: Adobe Illustrator 19.0.0, SVG Export Plug-In . SVG Version: 6.00 Build 0)  -->
<svg version="1.1" id="Layer_1" xmlns="http://www.w3.org/2000/svg" xmlns:xlink="http://www.w3.org/1999/xlink" x="0px" y="0px"
	 viewBox="-364 231 100 100" style="enable-background:new -364 231 100 100;" xml:space="preserve">
<style type="text/css">
	.st0{fill:#2A5C83;}
	.st1{fill:#FFFFFF;}
</style>
<g>
	<circle class="st0" cx="-314" cy="281" r="45"/>
	<path id="Instagram_1_" class="st1" d="M-300.8,263.7h-26.4c-2.3,0-4.1,1.8-4.1,4.1v26.4c0,2.3,1.8,4.1,4.1,4.1h26.4
		c2.3,0,4.1-1.8,4.1-4.1v-26.4C-296.7,265.5-298.5,263.7-300.8,263.7z M-306.4,269.1c0-0.6,0.5-1.1,1.1-1.1h3.2
		c0.6,0,1.1,0.5,1.1,1.1v3.2c0,0.6-0.5,1.1-1.1,1.1h-3.2c-0.6,0-1.1-0.5-1.1-1.1V269.1z M-314,274.4c3.7,0,6.7,3,6.7,6.6
		c0,3.7-3,6.6-6.7,6.6c-3.7,0-6.7-3-6.7-6.6C-320.6,277.4-317.6,274.4-314,274.4z M-299.9,294c0,0.6-0.5,1.1-1.1,1.1h-26
		c-0.6,0-1.1-0.5-1.1-1.1v-16.2h4.3c-0.6,0.8-0.8,2.3-0.8,3.3c0,5.8,4.7,10.5,10.5,10.5c5.8,0,10.5-4.7,10.5-10.5
		c0-1-0.1-2.5-0.8-3.3h4.3V294z"/>
</g>
</svg>
