<?xml version="1.0" encoding="utf-8"?>
<!-- Generator: Adobe Illustrator 19.0.0, SVG Export Plug-In . SVG Version: 6.00 Build 0)  -->
<svg version="1.1" id="Layer_1" xmlns="http://www.w3.org/2000/svg" xmlns:xlink="http://www.w3.org/1999/xlink" x="0px" y="0px"
	 viewBox="-345 257 100 100" style="enable-background:new -345 257 100 100;" xml:space="preserve">
<style type="text/css">
	.st0{display:none;}
	.st1{fill:#FFFFFF;}
</style>
<g>
	<circle class="st0" cx="-295" cy="307" r="45"/>
	<path id="Instagram_1_" class="st1" d="M-281.8,289.7h-26.4c-2.3,0-4.1,1.8-4.1,4.1v26.4c0,2.3,1.8,4.1,4.1,4.1h26.4
		c2.3,0,4.1-1.8,4.1-4.1v-26.4C-277.7,291.5-279.5,289.7-281.8,289.7z M-287.4,295.1c0-0.6,0.5-1.1,1.1-1.1h3.2
		c0.6,0,1.1,0.5,1.1,1.1v3.2c0,0.6-0.5,1.1-1.1,1.1h-3.2c-0.6,0-1.1-0.5-1.1-1.1V295.1z M-295,300.4c3.7,0,6.7,3,6.7,6.6
		c0,3.7-3,6.6-6.7,6.6s-6.7-3-6.7-6.6C-301.6,303.4-298.6,300.4-295,300.4z M-280.9,320c0,0.6-0.5,1.1-1.1,1.1h-26
		c-0.6,0-1.1-0.5-1.1-1.1v-16.2h4.3c-0.6,0.8-0.8,2.3-0.8,3.3c0,5.8,4.7,10.5,10.5,10.5s10.5-4.7,10.5-10.5c0-1-0.1-2.5-0.8-3.3h4.3
		V320H-280.9z"/>
</g>
</svg>
