<?xml version="1.0" encoding="utf-8"?>
<!-- Generator: Adobe Illustrator 19.0.0, SVG Export Plug-In . SVG Version: 6.00 Build 0)  -->
<svg version="1.1" id="Layer_1" xmlns="http://www.w3.org/2000/svg" xmlns:xlink="http://www.w3.org/1999/xlink" x="0px" y="0px"
	 viewBox="-345 257 100 100" style="enable-background:new -345 257 100 100;" xml:space="preserve">
<style type="text/css">
	.st0{display:none;}
	.st1{fill:#FFFFFF;}
</style>
<g>
	<circle class="st0" cx="-295" cy="307" r="45"/>
	<path id="Twitter_1_" class="st1" d="M-276.2,291.1c-1.6,1-3.3,1.7-5.2,2c-1.5-1.6-3.6-2.6-5.9-2.6c-4.5,0-8.1,3.7-8.1,8.4
		c0,0.7,0.1,1.3,0.2,1.9c-6.8-0.3-12.8-3.7-16.8-8.7c-0.7,1.2-1.1,2.7-1.1,4.2c0,2.9,1.4,5.5,3.6,7c-1.3,0-2.6-0.4-3.7-1v0.1
		c0,4.1,2.8,7.4,6.5,8.2c-0.7,0.2-1.4,0.3-2.1,0.3c-0.5,0-1,0-1.5-0.1c1,3.3,4,5.7,7.6,5.8c-2.8,2.2-6.3,3.6-10.1,3.6
		c-0.7,0-1.3,0-1.9-0.1c3.6,2.4,7.9,3.8,12.5,3.8c15,0,23.2-12.7,23.2-23.8c0-0.4,0-0.7,0-1.1c1.6-1.2,3-2.6,4.1-4.3
		c-1.5,0.7-3,1.1-4.7,1.3C-278.1,294.6-276.8,293-276.2,291.1z"/>
</g>
</svg>
