<?xml version="1.0" encoding="utf-8"?>
<!-- Generator: Adobe Illustrator 19.0.0, SVG Export Plug-In . SVG Version: 6.00 Build 0)  -->
<svg version="1.1" id="Layer_1" xmlns="http://www.w3.org/2000/svg" xmlns:xlink="http://www.w3.org/1999/xlink" x="0px" y="0px"
	 viewBox="0 0 225.2 94.9" style="enable-background:new 0 0 225.2 94.9;" xml:space="preserve">
<style type="text/css">
	.st0{fill:#3A2417;}
</style>
<path id="XMLID_13_" class="st0" d="M134.6,68.9c-2.6-7.5-11.8-11.2-18.3-14.6c-3.9-2-13.3-5.4-13.8-10.6c-0.3-2.9,2.3-6.3,4.5-7.6
	c1.6-0.9,3.6-1.7,5.5-1.6c4.6,0.3,8.4,7.2,3.1,9.6c-0.6,0.3-0.2,1.3,0.5,1.1c5-2,4.9-9.3,0.3-11.9c-6.2-3.4-16.6,2.2-16.4,9.5
	c0.3,9,14.2,13.3,20.5,16.7c5.3,2.9,13.4,7.4,11.9,14.7c-0.7,3.5-3.7,6.2-6.4,8.2c-2.6,1.9-11.5,7.9-12.1,0.9
	c-0.1-1.6-2.6-1.7-2.6,0c0.2,7.9,9.1,6,13.6,3.1C130.8,82.7,137.3,76.7,134.6,68.9z"/>
<path id="XMLID_12_" class="st0" d="M169.5,67.4c-3.1-1.8-5.6-4.2-7.4-7c-0.5-1.6-1.3-3.1-2.2-4.4c-0.7-1-2.6-0.4-2.1,0.9
	c0.6,1.5,1.2,2.9,2,4.2c1.6,5.2,0.4,11.2-5.8,12.7c-7.1,1.7-9.6-6.6-11.1-11.7c-0.4-1.2-2.1-0.7-1.9,0.5c1.4,7.1,6,16.4,14.8,13.2
	c5-1.8,7.1-6.1,7-10.6c1.5,1.6,3.3,3.1,5.4,4.3C169.6,70.1,170.8,68.1,169.5,67.4z"/>
<path id="XMLID_11_" class="st0" d="M193.3,53.4c-1.8-3.3-7.5-3.5-10.7-3.5c-5.3,0-10.3,1.7-14.8,4.6c-1.1,0.7-0.1,2.5,1.1,1.8
	c3-1.8,6.1-3.1,9.5-3.6c2.3-0.4,10.3-1.4,11.8,1c-0.2,1.3-0.4,2.7-0.6,4c-1.2,1-2.4,1.9-3.7,2.8c-1.3,0.9-2.7,1.8-4.1,2.7
	c-2.1,1.3-4.3,2.3-6.5,3.5c-1-2.8-1.9-5.7-2.8-8.5c-0.4-1.2-2.2-0.7-1.9,0.5c0.7,3.1,1.6,6.2,2.6,9.2c-0.7,0.5-0.3,1.7,0.5,1.6
	c1.2,3.6,2.6,7,4.1,10.5c1.6,3.5,3.3,7,5.1,10.4c1,1.8,1.6,3.8,3.6,4.4c0.5,0.2,1-0.1,1.3-0.5l0.4-0.5c0.3-0.5,0.1-1.3-0.4-1.6
	l-0.4-0.2c-0.2-0.1-0.4-0.1-0.6-0.1c-0.1-0.2-0.2-0.3-0.4-0.5c-0.5-0.8-0.9-1.5-1.3-2.3c-0.6-1-1.1-2.1-1.7-3.1
	c-1.5-2.9-2.9-5.8-4.2-8.8c-1.2-2.7-2.2-5.5-3.2-8.3c5-1.8,9.6-4.9,13.7-8.2C192,58.9,194.9,56.5,193.3,53.4z"/>
<path id="XMLID_10_" class="st0" d="M220,6.5c0.4-2.2,0.2-4.3-1.9-5.6c-4.2-2.6-12.8,0.6-15.5,4.2c-2.8,3.6-2.1,9.3,2.2,11.3
	c1,0.5,1.9-1,0.9-1.6c-11.6-6.4,14.8-19.5,10.8-6.2c-2.1,7-4.6,13.9-6,21c-1.1,5.9-3.5,22.6,6.6,22.6c1.3,0,1.7-2.1,0.3-2.4
	c-10-2.1-3.6-23-1.7-29.2C217,16.1,219.1,11.4,220,6.5z"/>
<path id="XMLID_9_" class="st0" d="M225,63.7c-0.3-0.5-1-0.8-1.6-0.6c-0.8,0.2-1.5,0.6-2.2,1c-0.7,0.3-0.9,1.4-0.5,2
	c0.4,0.7,1.3,0.9,2,0.5c0.7-0.4,1.5-0.7,2.1-1.2C225.2,65,225.3,64.2,225,63.7z"/>
<path id="XMLID_8_" class="st0" d="M94.7,68.3c-19.1,3.2-38.2,2.9-56.2-5C23.4,56.7,11.4,45.8,1.2,33c-0.5-0.7-1.6,0.2-1.2,0.9
	C18.1,64.8,61,81.6,95.2,70C96.3,69.7,95.8,68.1,94.7,68.3z"/>
<path id="XMLID_6_" class="st0" d="M100.1,64c-0.4-1.1-2.2-0.7-1.8,0.5c0.9,2.9,1,5.8,1,8.8c0,0.7,1,0.8,1.2,0.2
	C101.5,70.4,101.1,67,100.1,64z"/>
</svg>
