<?xml version="1.0" encoding="utf-8"?>
<!-- Generator: Adobe Illustrator 19.0.0, SVG Export Plug-In . SVG Version: 6.00 Build 0)  -->
<svg version="1.1" id="Layer_1" xmlns="http://www.w3.org/2000/svg" xmlns:xlink="http://www.w3.org/1999/xlink" x="0px" y="0px"
	 viewBox="0 0 98.8 200.7" style="enable-background:new 0 0 98.8 200.7;" xml:space="preserve">
<style type="text/css">
	.st0{fill:#3A2417;}
</style>
<path id="XMLID_155_" class="st0" d="M98.3,42.3C87.7,34,72,35.4,64.2,46.9c-9,13.3-1.6,26.7,7.8,37.3c1.2,1.4,2.5,2.7,3.7,4.1
	c2.1,2.5,2.2,7.2-1.4,8.3c-3.7,1.1-7.3,1-10.3,3.7c-3,2.7-4.2,6.6-7.6,8.9c-3.3,2.2-7.3,3.2-10.8,4.8c-10.7,4.9-19.4,20.7-7.3,29.4
	c3.9,2.8,9.8,3.1,8.2,9.7c-1,4.2-2.4,7.7-2.3,12.1c0.1,7.6,2.9,16.2,8.9,21.1c1.3,1.1,3.7-0.3,2.6-2c-4.2-6.2-7.4-12.1-7.3-19.8
	c0-3.7,1-6.8,2.1-10.3c0.8-2.4,1.3-4.9,0.1-7.3c-2.8-5.5-10.4-5.1-13-11c-3.4-8,3.3-15.3,10.1-18.4c5.5-2.5,11.4-3.9,15.3-9
	c1.2-1.5,2-3.6,3.5-5c1.7-1.6,3.9-2,6-2.5c2.8-0.6,5.5-1.1,7.7-3c4.2-3.6,2.7-7.9-0.4-11.6C74.8,81,69.2,76,66,69.2
	c-3.9-8.2-2-18.1,4.9-24.1c7.2-6.3,17.9-5.8,25.4-0.4C97.8,45.8,99.7,43.4,98.3,42.3z"/>
<path id="XMLID_154_" class="st0" d="M60,179.5c-1.6,2.4-2.3,5.2-3.2,7.9c-0.5,1.5-1,3.1-1.4,4.6c-0.6,1.9-0.6,4.3-2.6,4.9
	c-2.4,0.7-5.5-2.4-6.9-4.1c-2.1-2.4-3.2-5.2-4.3-8.1c-0.5-1.3-2.5-1.2-2.5,0.3c0.1,7,6.2,15.3,13.3,16.7c3.5,0.6,4.9-1.8,5.9-4.7
	c1.8-5.3,4.5-11.1,4.8-16.7C63.2,178.6,60.9,178.2,60,179.5z"/>
<path id="XMLID_153_" class="st0" d="M91.8,80.4c0-1.1-1.7-1.1-1.7,0C90,85.6,93.5,92.2,91.6,97c-2.3,6-10.8,9.1-16,12.1
	c-2.8,1.6-7.1,3.2-8.3,6.5c-1.2,3.3,1.7,6.6-2.5,9.3c-2.2,1.4-5.4,0.9-8,1.1c-0.8,0.1-1,1.2-0.2,1.4c3.4,0.8,8.5,0.5,11-2.4
	c1.4-1.6,1.1-3.1,1.3-5.1c0.7-6.5,5.2-7.9,10-10.7c4.6-2.7,11.3-5.2,13.8-10.4C95.5,93.1,91.7,86.4,91.8,80.4z"/>
<path id="XMLID_152_" class="st0" d="M35,146.8c-3.8-0.7-7.3-1.8-9.7-5.2c-2.7-3.9-2.7-8.4-1-12.6c0.2-0.6-0.8-1-1.1-0.5
	c-4.5,8.4,1.5,20.2,11.6,19.6C35.5,148,35.8,146.9,35,146.8z"/>
<path id="XMLID_13_" class="st0" d="M18.8,46.2c-7.5-0.9-13,6.4-13.3,13.4c-1.2-1.5-2.5-3-4-4.1c0,0,0,0-0.1-0.1c0,0,0,0,0,0
	c0,0,0,0,0,0c-0.8-0.5-1.8,0.4-1.4,1.4c1.5,3.5,4.9,6.8,7.3,9.6c2.2,2.5,4.8,6.5,8.1,7.5c0.9,0.3,1.6-0.8,1.2-1.5
	c-0.8-1.6-2.2-2.5-3.5-3.8c-1.5-1.5-2.9-3-4.2-4.6c-0.7-0.8-1.3-1.6-1.9-2.4c-0.2-6.8,5.2-12.3,11.9-14
	C19.9,47.4,19.6,46.3,18.8,46.2z"/>
<path id="XMLID_12_" class="st0" d="M39.3,51.2c-3,6.1-6.4,13.5-14.5,13.2c-2.6-0.1-5.2-1.2-6.8-3.1c1.2-0.1,2.4-0.5,3.6-1.2
	c1-0.6,2.1-1.6,2.9-2.7c3.8-1.9,3.7-7.9-0.8-9.2c-5.6-1.5-9.8,4.5-9.5,9.5c0.3,6.5,7.3,9.8,13.1,8.9C34.4,65.7,40,58.8,41,51.9
	C41.1,51,39.8,50.3,39.3,51.2z"/>
<path id="XMLID_11_" class="st0" d="M57.6,30.4c-2,2.6-4.6,2.6-7.8,0.1c-0.5-0.6-1.4-0.3-1.8,0.2c-1.5,2.3-2.9,4.5-4.4,6.8
	c-1.7,2.6-3.3,7.3-7,4.8c-2.4-1.7-3.7-5.3-3.7-8.1c0-1.1,0-2.5,0.4-3.6c2.2-5.4,6.5-3.4,9.8-1.6c0.8,0.4,1.4-0.7,0.7-1.2
	c-3.4-2.5-8.2-4.6-11.4-0.5c-2.6,3.3-2.2,8.7-0.7,12.3c1.1,2.6,4.5,7.2,8,6.4c1.7-0.4,2.6-2.3,3.4-3.6c2.1-3.1,4-6.3,6.1-9.4
	c3.1,2.6,7.7,2.5,9.9-1.5C59.7,30.6,58.4,29.7,57.6,30.4z"/>
<path id="XMLID_10_" class="st0" d="M70.6,20.1c-3.3,2.3-7.4,4.9-11.6,3.1c-4-1.8-3.6-6-0.1-8.1c2.2-1.3,5.7-2.2,8.2-0.9
	c0.6,0.3,1-0.5,0.5-0.9c-5-3.4-16.1,0.8-13.6,7.9c2.6,7.4,14.3,5.4,17.9,0.1C72.4,20.6,71.4,19.5,70.6,20.1z"/>
<path id="XMLID_9_" class="st0" d="M79.1,23.9C75.2,15,66.5,6.3,59.2,0.2c-0.8-0.6-1.8,0.4-1.1,1.1c3.6,3.7,7.1,7.4,10.4,11.3
	c3.3,3.9,5.8,8.5,9.2,12.3C78.4,25.7,79.5,24.7,79.1,23.9z"/>
<path id="XMLID_8_" class="st0" d="M81.8,16.2c-0.5-0.4-1.3,0-1.1,0.6c0.4,1.6,1.3,3,1.7,4.7c0.4,1.6,0.3,3.3,0.7,4.9
	c0.2,0.7,1.2,0.6,1.4,0C85.5,23.5,84.3,18.1,81.8,16.2z"/>
<path id="XMLID_6_" class="st0" d="M85.2,13.7c-0.1-0.1-0.1-0.1-0.2-0.2c0,0,0,0,0,0l0,0c-0.6-0.3-1.5,0.3-1.1,1.1
	c0.5,1,1.2,1.8,1.7,2.8c0.4,0.9,0.5,2,1.1,2.9c0.3,0.5,1.1,0.4,1.3-0.2C88.5,18,87,14.9,85.2,13.7z"/>
</svg>
