<?xml version="1.0" encoding="utf-8"?>
<!-- Generator: Adobe Illustrator 19.0.0, SVG Export Plug-In . SVG Version: 6.00 Build 0)  -->
<svg version="1.1" id="Layer_1" xmlns="http://www.w3.org/2000/svg" xmlns:xlink="http://www.w3.org/1999/xlink" x="0px" y="0px"
	 viewBox="0 0 130.7 162.4" style="enable-background:new 0 0 130.7 162.4;" xml:space="preserve">
<style type="text/css">
	.st0{fill:#3A2417;}
</style>
<path id="XMLID_6_" class="st0" d="M90.3,59.6c-0.6-1.5-2.7-1.3-2.8,0.4c-0.4,4.8,0.3,9.7,0.2,14.5C87.5,79.7,87,84.9,86,90
	c-1.9,10.1-5.5,19.9-10.8,28.8c-4.7,8-10.6,15.2-17.5,21.4c-7.2,6.5-15.5,10.7-23.5,16c-1.8,1.2-0.7,4.2,1.5,3.6
	c9.3-2.6,17.9-9.2,25-15.6c7.4-6.6,13.8-14.5,18.7-23.1c5.4-9.3,9.1-19.5,11.1-30C92.3,81.5,93.8,69.1,90.3,59.6z"/>
<path id="XMLID_13_" class="st0" d="M56.8,47.6c-5.9,1-18.5,1.9-20.6-4c6.1-1.2,14.2-6.8,13.5-13.9c-0.2-2.4-1.6-4.3-4-4.9
	c-3.9-1-7.3,2.5-9.4,5.3c-3.3,4.2-6.6,10.6-4.6,15.6c-1.2-2.7-2.6-5.4-3.6-7.9c-0.6-1.3-1.1-2.7-1.7-4c1.8-1.6,3.4-3.4,4.6-5.4
	c0.8-1.5-0.8-3.1-2.3-2.3c-1.5,0.8-2.9,1.9-4.2,3.1c-1.5-3.5-3.1-7-4.9-10.3c-0.5-0.9-1.8-0.3-1.6,0.7c0.8,4.3,2.1,8.5,3.5,12.6
	c-0.8,0.8-1.6,1.6-2.4,2.4c-2,1.9-4.1,3.7-6.1,5.5c-2.7-6.3-5.6-12.7-9.6-18.1c-1.3-1.8-3.8-0.5-3.3,1.4c0,0,0,0,0,0
	c0.1,0.1,0.1,0.3,0.2,0.4c0,0,0,0,0,0.1c0,0,0,0,0,0.1C3,30.3,6.4,36.6,9.1,43.2c-0.1,0.1-0.3,0.2-0.4,0.3c-1.7,1.4,0,3.5,1.8,3.3
	c1.2,3.1,2.3,6.3,3.4,9.5c1.1,3.6,1.8,7.5,3.7,10.7c1.1,1.8,3.8,1,3.9-1c0.1-7.2-4.1-15.5-6.9-22.1c2.6-2.1,5.1-4.2,7.5-6.4
	c0.3-0.3,0.7-0.6,1-0.9c0.5,1.4,1,2.7,1.5,4.1c2.1,5.7,3.8,13.1,7.9,17.7c0.9,1,2.8,0.2,2.7-1.1c-0.2-3.6-1.6-7.4-3.3-11
	c0.6,1.1,1.4,2.1,2.6,3.1c6.3,4.8,16.9,6,23.3,1.1C59.4,49.3,58.6,47.3,56.8,47.6z M37.2,37.1c0.9-1.9,2.2-4.2,3.7-5.6
	c1-1.6,2.5-1.9,4.6-0.9c-0.1,1.1-0.4,2.1-1,3c-1.9,3.1-5.2,4.8-8.3,6.4C36.3,39.2,36.7,38.2,37.2,37.1z"/>
<path id="XMLID_8_" class="st0" d="M59.6,28.1c-1.1-3.5-2.4-7-3.8-10.4c-0.8-1.9-1.7-3.7-2.6-5.6c-0.5-1-1.1-2.1-1.6-3.1
	c-1-1.2-1.4-2.6-1.4-4.2c1.4,1.2,3.3-0.7,2-2c-1.7-1.6-4.4-1.4-5.5,0.8C45,7,48.9,12.1,50.2,14.9c2.7,6,4.8,12.2,6.3,18.6
	c1.5,6.3,1.9,12.7,3,19.1c0.4,2.4,4,1.7,4.1-0.6C64,44.2,61.9,35.6,59.6,28.1z"/>
<path id="XMLID_9_" class="st0" d="M71.7,23.6c-2.3-7.9-5-15.7-7.2-23.6c-0.3-1.1-2.1-0.7-1.8,0.5c2,8,3.5,16.1,5.5,24
	c1.7,7,2.4,16,6.2,22.2c0.8,1.4,3,0.8,3.1-0.8C77.5,38.7,73.7,30.5,71.7,23.6z"/>
<path id="XMLID_17_" class="st0" d="M100.8,19.7c-8.7-3.7-17.7,1.7-20.5,10.2c-0.7,2.2,2.8,3.7,3.8,1.6c0.7-1.6,1.7-3.1,3-4.4
	c-1.2,3.7-1.2,8.3,0.3,11.2c3.7,7.4,14.3,7.9,19.2,1.6C111.9,32.9,108.6,23.1,100.8,19.7z M94.8,39.1c-3-1.1-4.3-3.5-4.5-6.6
	c-0.2-2.7,0.5-8.2,3.8-9.2c0.2,0,0.3,0,0.5,0c5-0.2,10,3.6,9.8,8.9C104.2,37.2,99.6,40.8,94.8,39.1z"/>
<path id="XMLID_10_" class="st0" d="M127.9,0.8c-0.5-1.4-3-1.3-2.8,0.4c0.4,5.2,1.1,10.2,0.9,15.4c-0.1,5.2-1.6,10.3-1.4,15.4
	c0.1,1.5,2.2,2.2,2.9,0.8C132.3,24.2,131.1,9.8,127.9,0.8z"/>
<path id="XMLID_14_" class="st0" d="M125.7,51.8c-0.3-0.1-0.7-0.2-1-0.2c-0.3,0-0.7,0.1-1,0.2c-1,0.2-1.8,1.3-1.7,2.3
	c0,1,0.7,2.1,1.7,2.3c0.3,0.1,0.7,0.2,1,0.2c0.3,0,0.7-0.1,1-0.2c0.9-0.3,1.7-1.2,1.7-2.2C127.3,53,126.7,52.1,125.7,51.8z"/>
<path id="XMLID_46_" class="st0" d="M91.3,97.9c-2.1,13-6.9,24.5-14.7,35.1c-0.5,0.6,0.6,1.5,1.1,0.9c8.6-9.9,13.9-22.7,14.6-35.9
	C92.4,97.5,91.4,97.3,91.3,97.9z"/>
<path id="XMLID_49_" class="st0" d="M94.5,109.2c-2.2,5.5-5.2,10.4-8,15.5c-0.2,0.5,0.4,1,0.8,0.6c3.9-4.6,6.2-10.2,8.1-15.9
	C95.5,108.8,94.7,108.7,94.5,109.2z"/>
</svg>
