<?xml version="1.0" encoding="utf-8"?>
<!-- Generator: Adobe Illustrator 19.0.0, SVG Export Plug-In . SVG Version: 6.00 Build 0)  -->
<svg version="1.1" xmlns="http://www.w3.org/2000/svg" xmlns:xlink="http://www.w3.org/1999/xlink" x="0px" y="0px"
	 viewBox="0 0 248 146.5" style="enable-background:new 0 0 248 146.5;" xml:space="preserve">
<style type="text/css">
	.st0{fill:#3B2416;}
</style>
<g id="Layer_1">
</g>
<g id="Layer_2">
	<path id="XMLID_7_" class="st0" d="M88,55.5c-7.7-6.2-17.3-8.9-27.1-9.1c-16.8-0.3-35.4,6.3-47.6,18.4c0.2-0.8,0.4-1.6,0.7-2.4
		c1.2-4.4,3.3-9.1,3-13.7c-0.1-1.8-2.3-2.4-3.3-0.9C10.8,52,10,58.1,8.6,62.9c-1,3.3-4.1,8.9-2.6,12.4c1,2.5,3.7,2.5,6,2.2
		c2.9-0.4,5.8-1.7,8.8-1.7c2.5,0,4.4,1.3,6.7,1.7c1.3,0.2,2.5-0.8,2.2-2.2c-1.4-6.2-12-5.4-16.4-3.4c-1-0.2-1.7,0.1-2.1,0.8
		c0-0.1,0-0.1,0-0.2c11.5-12.6,29.3-20,46.2-20.8c8.8-0.4,17.7,1.2,25.3,5.9c7.9,5,11.5,11.5,14.9,19.9c0.6,1.4,2.6,1.3,2.7-0.4
		C100.5,68.9,94.2,60.5,88,55.5z"/>
	<path id="XMLID_26_" class="st0" d="M88.7,92.1C88.7,92.1,88.7,92.1,88.7,92.1C88.7,92.1,88.7,92.1,88.7,92.1z"/>
	<path id="XMLID_27_" class="st0" d="M114.5,113.6c0.5-0.7-0.5-1.5-1.1-1.1c-0.3,0.2-0.6,0.3-0.9,0.4c-3.2-9.2-9.7-18.3-15.9-24.8
		c-0.7-0.8-2.1,0.3-1.5,1.1c3.6,4.8,7.1,9.7,10,15c1.6,3,2.9,6.2,4.3,9.4c-4.9,0.2-10-3.5-13.7-6.2c-3.6-2.6-6.9-5.6-10.1-8.7
		c-0.2-0.2-0.3-0.5-0.5-0.7c-0.4-0.5-0.8-1.1-1.2-1.6c-0.3-0.5-0.7-1-1.2-1.3c-0.1-0.1-0.2-0.1-0.3-0.2c0-0.1,0-0.2-0.1-0.3
		c0-0.1-0.1-0.2-0.1-0.3c-0.1-0.4-0.5-0.7-0.9-0.7c-0.2,0-0.3,0-0.5,0c-0.4,0-0.8,0.3-0.9,0.7c-0.4,1.7,1.3,3.2,2.2,4.5
		c2.3,3.2,4.2,6.8,5.4,10.6c2.2,7,3.4,16.3-3.2,21.3c-0.8,0.6-0.4,1.9,0.7,1.7c7.1-1.4,7.8-10.3,7.1-16.1c-0.4-3.6-1.3-7-2.7-10.3
		c3,2.6,6.3,5,9.7,7.1c3.3,2,7.7,4.1,11.4,3.3c0.7,1.5,1.3,2.9,2.1,4.4c0.4,0.7,1.8,0.5,1.7-0.5c-0.2-1.7-0.6-3.5-1.1-5.2
		C113.7,114.6,114.1,114.1,114.5,113.6z"/>
	<path id="XMLID_32_" class="st0" d="M133.3,108.8c-3.1,0.4-5.5,1.2-8.6,0c-2.4-0.9-4.6-2.5-6-4.7c4.6-0.9,9-4.5,7.1-9.7
		c-1.9-5.3-8.3-4.8-10.7-0.2c-2.7,5.2,0,11.4,4.3,14.8c3.9,3,10.7,5.1,15,1.8C135.5,110,134.3,108.7,133.3,108.8z M120.2,93.5
		c3.1-0.5,4,3.5,2.8,5.7c-1.1,1.9-3.3,2.8-5.4,3.1C116.4,99.4,116.4,94.1,120.2,93.5z"/>
	<path id="XMLID_28_" class="st0" d="M141.1,74.7c-1.2-0.4-2.3,1.4-1.3,2.2c3.7,2.9,7.3,5.2,9.9,9.3c1.9,3,3.5,9.5-2.9,8
		c-2.5-0.6-4.5-2.9-6.2-4.7c-1.1-1.1-3.2,0.4-2.2,1.7c0.1,0.1,0.2,0.2,0.2,0.3c0,0,0,0,0,0c0.1,0.1,0.2,0.2,0.2,0.3
		c1.1,1.5,1,3-0.2,4.7c-0.5,4.4-2.2,4.1-5-0.9c0.7-1.3-1.2-2.3-1.9-1.1c-2.2,3.5,0.4,8.1,4.6,7.8c4.7-0.3,6.1-4,5.8-7.7
		c4.3,3,10.3,5,12.5-1.3C157.1,86.2,146.9,76.8,141.1,74.7z"/>
	<path id="XMLID_40_" class="st0" d="M190.5,39.3c-2.3,0.6-4.5,1.7-6.6,3.3c-2.2-5.3-7.1-13.6-13.4-12.1c-3.9,1-5.8,4.2-6.5,7.9
		c-1.8-2-3.8-3.9-5.9-5.6c-1-0.8-2.2,0.4-1.4,1.4c2.5,2.6,4.8,5.3,6.9,8.1c0,2.2,0.2,4.3,0.5,6c2.2,10.4,7.6,20.7,13.2,29.6
		c0.6,1,2.4,0.7,2.4-0.6c-0.4-6.6-1.9-13.4-4.3-19.8c1.8-3.2,3.6-6.3,6.2-9.1c0.5-0.5,1-0.9,1.5-1.4c0.6,2,1.1,4,1.6,5.8
		c1.3,5.3,1.8,12.3,5,16.9c0.4,0.6,1.7,0.5,1.6-0.4c-0.4-4.1-2.1-8.1-3.1-12.1c-0.9-3.9-1.8-7.9-3.1-11.8c2-1.5,4.2-2.8,6.2-4.3
		C192,40.4,191.6,39,190.5,39.3z M168.6,54.4c-1-2.8-2-5.8-2.4-8.8c5.2,7.8,8.9,16.2,10.4,25.8C173.4,66,170.7,60.3,168.6,54.4z
		 M174.2,54.5c-2.1-4.9-4.9-9.6-8.2-13.8c0.7-5.2,3.8-10.9,10.3-5.5c2.6,2.2,4.4,5.4,5.7,8.8C178.8,47,176,50.8,174.2,54.5z"/>
	<path id="XMLID_29_" class="st0" d="M202.6,37.5c-4,0.5-6.9,4.4-7.4,8.2c-0.1,0.5-0.1,0.9-0.1,1.4c-1.1-0.4-2.3,0.9-1.3,1.8
		c0.7,0.6,1.4,1.3,2.1,2c0.8,1.9,2.1,3.6,3.8,4.9c1,0.8,2.3-0.7,1.7-1.7c-0.9-1.5-2-2.9-3.2-4.2c-0.4-1.2-0.6-2.5-0.3-3.9
		c0.6-3.2,2.9-5,5.4-6.7C204.3,38.7,203.7,37.4,202.6,37.5z"/>
	<path id="XMLID_34_" class="st0" d="M221.3,31.1c-1.8,0.5-3.4,1.9-5,3.1c-2.6-6-6.1-11.8-9.4-16.8c-0.6-0.9-2-0.1-1.5,0.9
		c2.2,4.3,4.6,8.6,6.6,13c0.7,1.5,1.3,3.1,2,4.7c-1.6,1.2-3.2,2.3-4.7,3.5c-0.9,0.7-0.1,2.3,0.9,1.6c1.5-1,3.1-2.1,4.6-3.1
		c0.9,2.3,1.8,4.6,3,6.7c0.5,1,1.9,0.3,1.7-0.7c-0.5-2.5-1.3-5.1-2.3-7.6c1.8-1.2,3.8-2.3,5-4C222.7,31.7,222,30.9,221.3,31.1z"/>
	<path id="XMLID_33_" class="st0" d="M227.8,61.2c-11.7,5.9-22.7,13.5-33.8,20.5c-11.4,7.2-22.9,14.3-34.3,21.5
		c-11.2,7-22.3,14-33.5,21c-10.8,6.8-22.6,12.9-32.5,20.9c0,0,0,0-0.1,0c0,0,0,0,0,0c0,0,0,0,0,0c-0.5,0.5,0,1.7,1,1.3
		c11.8-5.5,22.7-13.7,33.8-20.5c11.2-7,22.4-13.9,33.5-20.9c10.9-6.8,21.8-13.6,32.7-20.4c11.4-7.1,23.3-13.8,34.1-22
		C229.5,62,228.8,60.7,227.8,61.2z"/>
	<path id="XMLID_35_" class="st0" d="M236.3,49.4c-1.3-1.6-3.9,0-3.5,1.9c0.5,2,4,1.6,3.7-0.3C236.8,50.5,236.7,49.9,236.3,49.4z"/>
</g>
<g id="Layer_3">
	<path id="XMLID_54_" class="st0" d="M155,49.1c-0.9-2-3-3.5-4.3-5.1c-1.6-2-2.8-4.3-4.3-6.4c-0.7-1-2.2-0.1-1.7,0.9
		c0.8,2.5,2.4,4.9,4,7c1.4,1.8,3,4.2,5.2,5C154.8,50.9,155.3,49.8,155,49.1z"/>
	<path id="XMLID_53_" class="st0" d="M219.4,10.1c-0.3-1.3-1.4-2.5-2.1-3.6c-0.8-1.3-1.4-2.6-2.2-3.9c-0.6-1-2.2-0.4-1.9,0.8
		c0.4,1.5,1.2,3,1.9,4.3c0.7,1.3,1.4,2.8,2.6,3.6C218.7,11.9,219.6,11,219.4,10.1z"/>
	<path id="XMLID_52_" class="st0" d="M146.5,52.3c-0.9-1.4-2.2-2.5-3.2-3.9c-1.1-1.5-1.9-3.1-2.6-4.8c-0.4-0.9-1.9-0.6-1.5,0.4
		c1.1,3.3,3.1,7.6,6.2,9.4C146,53.8,146.9,53,146.5,52.3z"/>
	<path id="XMLID_51_" class="st0" d="M223.1,11.2c-0.5-2-1.4-3.9-2.1-5.8c-0.6-1.7-1-3.6-1.9-5.2c0,0,0,0,0,0
		c-0.3-0.5-1.1-0.4-1.1,0.3c0,2,0.8,3.9,1.4,5.7c0.6,1.9,1.2,3.9,2.4,5.5C222.2,12.5,223.2,12.1,223.1,11.2z"/>
</g>
</svg>
