<?xml version="1.0" encoding="utf-8"?>
<!-- Generator: Adobe Illustrator 19.0.0, SVG Export Plug-In . SVG Version: 6.00 Build 0)  -->
<svg version="1.1" xmlns="http://www.w3.org/2000/svg" xmlns:xlink="http://www.w3.org/1999/xlink" x="0px" y="0px"
	 viewBox="0 0 830 560" style="enable-background:new 0 0 830 560;" xml:space="preserve">
<style type="text/css">
	.st0{fill:#FFFFFF;}
</style>
<g id="Layer_1">
	<path id="XMLID_5_" class="st0" d="M488,150.6c-1.1,4-1.5,8.2-1,12.4c0.3,2.7,2.1,5,5,5c2.4,0,5.3-2.3,5-5
		c-0.4-3.3-0.3-6.5,0.6-9.7C499.4,147.1,489.7,144.4,488,150.6z"/>
</g>
<g id="Layer_2">
	<path id="XMLID_7_" d="M88,90c-7.7-6.2-17.3-8.9-27.1-9.1c-16.8-0.3-35.4,6.3-47.6,18.4c0.2-0.8,0.4-1.6,0.7-2.4
		c1.2-4.4,3.3-9.1,3-13.7c-0.1-1.8-2.3-2.4-3.3-0.9c-2.9,4.2-3.7,10.3-5.1,15.1c-1,3.3-4.1,8.9-2.6,12.4c1,2.5,3.7,2.5,6,2.2
		c2.9-0.4,5.8-1.7,8.8-1.7c2.5,0,4.4,1.3,6.7,1.7c1.3,0.2,2.5-0.8,2.2-2.2c-1.4-6.2-12-5.4-16.4-3.4c-1-0.2-1.7,0.1-2.1,0.8
		c0-0.1,0-0.1,0-0.2c11.5-12.6,29.3-20,46.2-20.8c8.8-0.4,17.7,1.2,25.3,5.9c7.9,5,11.5,11.5,14.9,19.9c0.6,1.4,2.6,1.3,2.7-0.4
		C100.5,103.4,94.2,94.9,88,90z"/>
	<path id="XMLID_6_" d="M635,120.5c-0.6-1.5-2.7-1.3-2.8,0.4c-0.4,4.8,0.3,9.7,0.2,14.5c-0.1,5.2-0.7,10.4-1.7,15.6
		c-1.9,10.1-5.5,19.9-10.8,28.8c-4.7,8-10.6,15.2-17.5,21.4c-7.2,6.5-15.5,10.7-23.5,16c-1.8,1.2-0.7,4.2,1.5,3.6
		c9.3-2.6,17.9-9.2,25-15.6c7.4-6.6,13.8-14.5,18.7-23.1c5.4-9.3,9.1-19.5,11.1-30C637.1,142.4,638.6,130.1,635,120.5z"/>
	<path id="XMLID_13_" d="M601.6,108.5c-5.9,1-18.5,1.9-20.6-4c6.1-1.2,14.2-6.8,13.5-13.9c-0.2-2.4-1.6-4.3-4-4.9
		c-3.9-1-7.3,2.5-9.4,5.3c-3.3,4.2-6.6,10.6-4.6,15.6c-1.2-2.7-2.6-5.4-3.6-7.9c-0.6-1.3-1.1-2.7-1.7-4c1.8-1.6,3.4-3.4,4.6-5.4
		c0.8-1.5-0.8-3.1-2.3-2.3c-1.5,0.8-2.9,1.9-4.2,3.1c-1.5-3.5-3.1-7-4.9-10.3c-0.5-0.9-1.8-0.3-1.6,0.7c0.8,4.3,2.1,8.5,3.5,12.6
		c-0.8,0.8-1.6,1.6-2.4,2.4c-2,1.9-4.1,3.7-6.1,5.5c-2.7-6.3-5.6-12.7-9.6-18.1c-1.3-1.8-3.8-0.5-3.3,1.4c0,0,0,0,0,0
		c0.1,0.1,0.1,0.3,0.2,0.4c0,0,0,0,0,0.1c0,0,0,0,0,0.1c2.8,6.6,6.1,12.9,8.9,19.5c-0.1,0.1-0.3,0.2-0.4,0.3c-1.7,1.4,0,3.5,1.8,3.3
		c1.2,3.1,2.3,6.3,3.4,9.5c1.1,3.6,1.8,7.5,3.7,10.7c1.1,1.8,3.8,1,3.9-1c0.1-7.2-4.1-15.5-6.9-22.1c2.6-2.1,5.1-4.2,7.5-6.4
		c0.3-0.3,0.7-0.6,1-0.9c0.5,1.4,1,2.7,1.5,4.1c2.1,5.7,3.8,13.1,7.9,17.7c0.9,1,2.8,0.2,2.7-1.1c-0.2-3.6-1.6-7.4-3.3-11
		c0.6,1.1,1.4,2.1,2.6,3.1c6.3,4.8,16.9,6,23.3,1.1C604.1,110.3,603.3,108.2,601.6,108.5z M581.9,98.1c0.9-1.9,2.2-4.2,3.7-5.6
		c1-1.6,2.5-1.9,4.6-0.9c-0.1,1.1-0.4,2.1-1,3c-1.9,3.1-5.2,4.8-8.3,6.4C581.1,100.1,581.4,99.2,581.9,98.1z"/>
	<path id="XMLID_8_" d="M604.4,89c-1.1-3.5-2.4-7-3.8-10.4c-0.8-1.9-1.7-3.7-2.6-5.6c-0.5-1-1.1-2.1-1.6-3.1c-1-1.2-1.4-2.6-1.4-4.2
		c1.4,1.2,3.3-0.7,2-2c-1.7-1.6-4.4-1.4-5.5,0.8c-1.6,3.3,2.3,8.4,3.5,11.2c2.7,6,4.8,12.2,6.3,18.6c1.5,6.3,1.9,12.7,3,19.1
		c0.4,2.4,4,1.7,4.1-0.6C608.7,105.1,606.7,96.5,604.4,89z"/>
	<path id="XMLID_9_" d="M616.4,84.5c-2.3-7.9-5-15.7-7.2-23.6c-0.3-1.1-2.1-0.7-1.8,0.5c2,8,3.5,16.1,5.5,24c1.7,7,2.4,16,6.2,22.2
		c0.8,1.4,3,0.8,3.1-0.8C622.3,99.6,618.4,91.4,616.4,84.5z"/>
	<path id="XMLID_17_" d="M645.5,80.6c-8.7-3.7-17.7,1.7-20.5,10.2c-0.7,2.2,2.8,3.7,3.8,1.6c0.7-1.6,1.7-3.1,3-4.4
		c-1.2,3.7-1.2,8.3,0.3,11.2c3.7,7.4,14.3,7.9,19.2,1.6C656.7,93.8,653.4,84,645.5,80.6z M639.6,100c-3-1.1-4.3-3.5-4.5-6.6
		c-0.2-2.7,0.5-8.2,3.8-9.2c0.2,0,0.3,0,0.5,0c5-0.2,10,3.6,9.8,8.9C649,98.1,644.4,101.7,639.6,100z"/>
	<path id="XMLID_10_" d="M672.7,61.8c-0.5-1.4-3-1.3-2.8,0.4c0.4,5.2,1.1,10.2,0.9,15.4c-0.1,5.2-1.6,10.3-1.4,15.4
		c0.1,1.5,2.2,2.2,2.9,0.8C677,85.2,675.9,70.8,672.7,61.8z"/>
	<path id="XMLID_14_" d="M670.4,112.8c-0.3-0.1-0.7-0.2-1-0.2c-0.3,0-0.7,0.1-1,0.2c-1,0.2-1.8,1.3-1.7,2.3c0,1,0.7,2.1,1.7,2.3
		c0.3,0.1,0.7,0.2,1,0.2c0.3,0,0.7-0.1,1-0.2c0.9-0.3,1.7-1.2,1.7-2.2C672.1,114,671.4,113,670.4,112.8z"/>
	<path id="XMLID_19_" d="M652.6,421.6c-2.6-7.5-11.8-11.2-18.3-14.6c-3.9-2-13.3-5.4-13.8-10.6c-0.3-2.9,2.3-6.3,4.5-7.6
		c1.6-0.9,3.6-1.7,5.5-1.6c4.6,0.3,8.4,7.2,3.1,9.6c-0.6,0.3-0.2,1.3,0.5,1.1c5-2,4.9-9.3,0.3-11.9c-6.2-3.4-16.6,2.2-16.4,9.5
		c0.3,9,14.2,13.3,20.5,16.7c5.3,2.9,13.4,7.4,11.9,14.7c-0.7,3.5-3.7,6.2-6.4,8.2c-2.6,1.9-11.5,7.9-12.1,0.9
		c-0.1-1.6-2.6-1.7-2.6,0c0.2,7.9,9.1,6,13.6,3.1C648.8,435.4,655.3,429.3,652.6,421.6z"/>
	<path id="XMLID_20_" d="M687.6,420c-3.1-1.8-5.6-4.2-7.4-7c-0.5-1.6-1.3-3.1-2.2-4.4c-0.7-1-2.6-0.4-2.1,0.9c0.6,1.5,1.2,2.9,2,4.2
		c1.6,5.2,0.4,11.2-5.8,12.7c-7.1,1.7-9.6-6.6-11.1-11.7c-0.4-1.2-2.1-0.7-1.9,0.5c1.4,7.1,6,16.4,14.8,13.2c5-1.8,7.1-6.1,7-10.6
		c1.5,1.6,3.3,3.1,5.4,4.3C687.7,422.8,688.8,420.8,687.6,420z"/>
	<path id="XMLID_22_" d="M711.3,406.1c-1.8-3.3-7.5-3.5-10.7-3.5c-5.3,0-10.3,1.7-14.8,4.6c-1.1,0.7-0.1,2.5,1.1,1.8
		c3-1.8,6.1-3.1,9.5-3.6c2.3-0.4,10.3-1.4,11.8,1c-0.2,1.3-0.4,2.7-0.6,4c-1.2,1-2.4,1.9-3.7,2.8c-1.3,0.9-2.7,1.8-4.1,2.7
		c-2.1,1.3-4.3,2.3-6.5,3.5c-1-2.8-1.9-5.7-2.8-8.5c-0.4-1.2-2.2-0.7-1.9,0.5c0.7,3.1,1.6,6.2,2.6,9.2c-0.7,0.5-0.3,1.7,0.5,1.6
		c1.2,3.6,2.6,7,4.1,10.5c1.6,3.5,3.3,7,5.1,10.4c1,1.8,1.6,3.8,3.6,4.4c0.5,0.2,1-0.1,1.3-0.5l0.4-0.5c0.3-0.5,0.1-1.3-0.4-1.6
		l-0.4-0.2c-0.2-0.1-0.4-0.1-0.6-0.1c-0.1-0.2-0.2-0.3-0.4-0.5c-0.5-0.8-0.9-1.5-1.3-2.3c-0.6-1-1.1-2.1-1.7-3.1
		c-1.5-2.9-2.9-5.8-4.2-8.8c-1.2-2.7-2.2-5.5-3.2-8.3c5-1.8,9.6-4.9,13.7-8.2C710,411.6,713,409.2,711.3,406.1z"/>
	<path id="XMLID_21_" d="M738,359.2c0.4-2.2,0.2-4.3-1.9-5.6c-4.2-2.6-12.8,0.6-15.5,4.2c-2.8,3.6-2.1,9.3,2.2,11.3
		c1,0.5,1.9-1,0.9-1.6c-11.6-6.4,14.8-19.5,10.8-6.2c-2.1,7-4.6,13.9-6,21c-1.1,5.9-3.5,22.6,6.6,22.6c1.3,0,1.7-2.1,0.3-2.4
		c-10-2.1-3.6-23-1.7-29.2C735,368.8,737.2,364,738,359.2z"/>
	<path id="XMLID_23_" d="M743,416.4c-0.3-0.5-1-0.8-1.6-0.6c-0.8,0.2-1.5,0.6-2.2,1c-0.7,0.3-0.9,1.4-0.5,2c0.4,0.7,1.3,0.9,2,0.5
		c0.7-0.4,1.5-0.7,2.1-1.2C743.3,417.7,743.3,416.9,743,416.4z"/>
	<path id="XMLID_24_" d="M612.7,421c-19.1,3.2-38.2,2.9-56.2-5c-15.1-6.6-27.1-17.5-37.3-30.3c-0.5-0.7-1.6,0.2-1.2,0.9
		c18.1,30.9,61,47.7,95.2,36.1C614.3,422.3,613.9,420.8,612.7,421z"/>
	<path id="XMLID_25_" d="M618.1,416.7c-0.4-1.1-2.2-0.7-1.8,0.5c0.9,2.9,1,5.8,1,8.8c0,0.7,1,0.8,1.2,0.2
		C619.5,423.1,619.1,419.7,618.1,416.7z"/>
	<path id="XMLID_26_" d="M88.7,126.6C88.7,126.6,88.7,126.6,88.7,126.6C88.7,126.6,88.7,126.6,88.7,126.6z"/>
	<path id="XMLID_27_" d="M114.5,148.1c0.5-0.7-0.5-1.5-1.1-1.1c-0.3,0.2-0.6,0.3-0.9,0.4c-3.2-9.2-9.7-18.3-15.9-24.8
		c-0.7-0.8-2.1,0.3-1.5,1.1c3.6,4.8,7.1,9.7,10,15c1.6,3,2.9,6.2,4.3,9.4c-4.9,0.2-10-3.5-13.7-6.2c-3.6-2.6-6.9-5.6-10.1-8.7
		c-0.2-0.2-0.3-0.5-0.5-0.7c-0.4-0.5-0.8-1.1-1.2-1.6c-0.3-0.5-0.7-1-1.2-1.3c-0.1-0.1-0.2-0.1-0.3-0.2c0-0.1,0-0.2-0.1-0.3
		c0-0.1-0.1-0.2-0.1-0.3c-0.1-0.4-0.5-0.7-0.9-0.7c-0.2,0-0.3,0-0.5,0c-0.4,0-0.8,0.3-0.9,0.7c-0.4,1.7,1.3,3.2,2.2,4.5
		c2.3,3.2,4.2,6.8,5.4,10.6c2.2,7,3.4,16.3-3.2,21.3c-0.8,0.6-0.4,1.9,0.7,1.7c7.1-1.4,7.8-10.3,7.1-16.1c-0.4-3.6-1.3-7-2.7-10.3
		c3,2.6,6.3,5,9.7,7.1c3.3,2,7.7,4.1,11.4,3.3c0.7,1.5,1.3,2.9,2.1,4.4c0.4,0.7,1.8,0.5,1.7-0.5c-0.2-1.7-0.6-3.5-1.1-5.2
		C113.7,149.1,114.1,148.6,114.5,148.1z"/>
	<path id="XMLID_32_" d="M133.3,143.3c-3.1,0.4-5.5,1.2-8.6,0c-2.4-0.9-4.6-2.5-6-4.7c4.6-0.9,9-4.5,7.1-9.7
		c-1.9-5.3-8.3-4.8-10.7-0.2c-2.7,5.2,0,11.4,4.3,14.8c3.9,3,10.7,5.1,15,1.8C135.5,144.5,134.3,143.2,133.3,143.3z M120.2,128
		c3.1-0.5,4,3.5,2.8,5.7c-1.1,1.9-3.3,2.8-5.4,3.1C116.4,133.8,116.4,128.6,120.2,128z"/>
	<path id="XMLID_28_" d="M141.1,109.1c-1.2-0.4-2.3,1.4-1.3,2.2c3.7,2.9,7.3,5.2,9.9,9.3c1.9,3,3.5,9.5-2.9,8
		c-2.5-0.6-4.5-2.9-6.2-4.7c-1.1-1.1-3.2,0.4-2.2,1.7c0.1,0.1,0.2,0.2,0.2,0.3c0,0,0,0,0,0c0.1,0.1,0.2,0.2,0.2,0.3
		c1.1,1.5,1,3-0.2,4.7c-0.5,4.4-2.2,4.1-5-0.9c0.7-1.3-1.2-2.3-1.9-1.1c-2.2,3.5,0.4,8.1,4.6,7.8c4.7-0.3,6.1-4,5.8-7.7
		c4.3,3,10.3,5,12.5-1.3C157.1,120.7,146.9,111.3,141.1,109.1z"/>
	<path id="XMLID_40_" d="M190.5,73.8c-2.3,0.6-4.5,1.7-6.6,3.3c-2.2-5.3-7.1-13.6-13.4-12.1c-3.9,1-5.8,4.2-6.5,7.9
		c-1.8-2-3.8-3.9-5.9-5.6c-1-0.8-2.2,0.4-1.4,1.4c2.5,2.6,4.8,5.3,6.9,8.1c0,2.2,0.2,4.3,0.5,6c2.2,10.4,7.6,20.7,13.2,29.6
		c0.6,1,2.4,0.7,2.4-0.6c-0.4-6.6-1.9-13.4-4.3-19.8c1.8-3.2,3.6-6.3,6.2-9.1c0.5-0.5,1-0.9,1.5-1.4c0.6,2,1.1,4,1.6,5.8
		c1.3,5.3,1.8,12.3,5,16.9c0.4,0.6,1.7,0.5,1.6-0.4c-0.4-4.1-2.1-8.1-3.1-12.1c-0.9-3.9-1.8-7.9-3.1-11.8c2-1.5,4.2-2.8,6.2-4.3
		C192,74.9,191.6,73.5,190.5,73.8z M168.6,88.9c-1-2.8-2-5.8-2.4-8.8c5.2,7.8,8.9,16.2,10.4,25.8C173.4,100.5,170.7,94.8,168.6,88.9
		z M174.2,89c-2.1-4.9-4.9-9.6-8.2-13.8c0.7-5.2,3.8-10.9,10.3-5.5c2.6,2.2,4.4,5.4,5.7,8.8C178.8,81.5,176,85.3,174.2,89z"/>
	<path id="XMLID_29_" d="M202.6,72c-4,0.5-6.9,4.4-7.4,8.2c-0.1,0.5-0.1,0.9-0.1,1.4c-1.1-0.4-2.3,0.9-1.3,1.8
		c0.7,0.6,1.4,1.3,2.1,2c0.8,1.9,2.1,3.6,3.8,4.9c1,0.8,2.3-0.7,1.7-1.7c-0.9-1.5-2-2.9-3.2-4.2c-0.4-1.2-0.6-2.5-0.3-3.9
		c0.6-3.2,2.9-5,5.4-6.7C204.3,73.2,203.7,71.8,202.6,72z"/>
	<path id="XMLID_34_" d="M221.3,65.6c-1.8,0.5-3.4,1.9-5,3.1c-2.6-6-6.1-11.8-9.4-16.8c-0.6-0.9-2-0.1-1.5,0.9
		c2.2,4.3,4.6,8.6,6.6,13c0.7,1.5,1.3,3.1,2,4.7c-1.6,1.2-3.2,2.3-4.7,3.5c-0.9,0.7-0.1,2.3,0.9,1.6c1.5-1,3.1-2.1,4.6-3.1
		c0.9,2.3,1.8,4.6,3,6.7c0.5,1,1.9,0.3,1.7-0.7c-0.5-2.5-1.3-5.1-2.3-7.6c1.8-1.2,3.8-2.3,5-4C222.7,66.2,222,65.4,221.3,65.6z"/>
	<path id="XMLID_33_" d="M227.8,95.7c-11.7,5.9-22.7,13.5-33.8,20.5c-11.4,7.2-22.9,14.3-34.3,21.5c-11.2,7-22.3,14-33.5,21
		c-10.8,6.8-22.6,12.9-32.5,20.9c0,0,0,0-0.1,0c0,0,0,0,0,0c0,0,0,0,0,0c-0.5,0.5,0,1.7,1,1.3c11.8-5.5,22.7-13.7,33.8-20.5
		c11.2-7,22.4-13.9,33.5-20.9c10.9-6.8,21.8-13.6,32.7-20.4c11.4-7.1,23.3-13.8,34.1-22C229.5,96.5,228.8,95.2,227.8,95.7z"/>
	<path id="XMLID_35_" d="M236.3,83.9c-1.3-1.6-3.9,0-3.5,1.9c0.5,2,4,1.6,3.7-0.3C236.8,85,236.7,84.3,236.3,83.9z"/>
	<path id="XMLID_46_" d="M636.1,158.9c-2.1,13-6.9,24.5-14.7,35.1c-0.5,0.6,0.6,1.5,1.1,0.9c8.6-9.9,13.9-22.7,14.6-35.9
		C637.2,158.4,636.2,158.3,636.1,158.9z"/>
	<path id="XMLID_49_" d="M639.2,170.1c-2.2,5.5-5.2,10.4-8,15.5c-0.2,0.5,0.4,1,0.8,0.6c3.9-4.6,6.2-10.2,8.1-15.9
		C640.2,169.8,639.4,169.6,639.2,170.1z"/>
</g>
<g id="Layer_3">
	<path id="XMLID_36_" d="M214.5,356.4c-10.6-8.3-26.4-6.9-34.1,4.6c-9,13.3-1.6,26.7,7.8,37.3c1.2,1.4,2.5,2.7,3.7,4.1
		c2.1,2.5,2.2,7.2-1.4,8.3c-3.7,1.1-7.3,1-10.3,3.7c-3,2.7-4.2,6.6-7.6,8.9c-3.3,2.2-7.3,3.2-10.8,4.8c-10.7,4.9-19.4,20.7-7.3,29.4
		c3.9,2.8,9.8,3.1,8.2,9.7c-1,4.2-2.4,7.7-2.3,12.1c0.1,7.6,2.9,16.2,8.9,21.1c1.3,1.1,3.7-0.3,2.6-2c-4.2-6.2-7.4-12.1-7.3-19.8
		c0-3.7,1-6.8,2.1-10.3c0.8-2.4,1.3-4.9,0.1-7.3c-2.8-5.5-10.4-5.1-13-11c-3.4-8,3.3-15.3,10.1-18.4c5.5-2.5,11.4-3.9,15.3-9
		c1.2-1.5,2-3.6,3.5-5c1.7-1.6,3.9-2,6-2.5c2.8-0.6,5.5-1.1,7.7-3c4.2-3.6,2.7-7.9-0.4-11.6c-4.7-5.6-10.3-10.7-13.5-17.4
		c-3.9-8.2-2-18.1,4.9-24.1c7.2-6.3,17.9-5.8,25.4-0.4C214,359.9,215.9,357.5,214.5,356.4z"/>
	<path id="XMLID_37_" d="M176.2,493.6c-1.6,2.4-2.3,5.2-3.2,7.9c-0.5,1.5-1,3.1-1.4,4.6c-0.6,1.9-0.6,4.3-2.6,4.9
		c-2.4,0.7-5.5-2.4-6.9-4.1c-2.1-2.4-3.2-5.2-4.3-8.1c-0.5-1.3-2.5-1.2-2.5,0.3c0.1,7,6.2,15.3,13.3,16.7c3.5,0.6,4.9-1.8,5.9-4.7
		c1.8-5.3,4.5-11.1,4.8-16.7C179.3,492.7,177,492.3,176.2,493.6z"/>
	<path id="XMLID_42_" d="M208,394.6c0-1.1-1.7-1.1-1.7,0c-0.1,5.1,3.4,11.7,1.5,16.5c-2.3,6-10.8,9.1-16,12.1
		c-2.8,1.6-7.1,3.2-8.3,6.5c-1.2,3.3,1.7,6.6-2.5,9.3c-2.2,1.4-5.4,0.9-8,1.1c-0.8,0.1-1,1.2-0.2,1.4c3.4,0.8,8.5,0.5,11-2.4
		c1.4-1.6,1.1-3.1,1.3-5.1c0.7-6.5,5.2-7.9,10-10.7c4.6-2.7,11.3-5.2,13.8-10.4C211.7,407.2,207.8,400.5,208,394.6z"/>
	<path id="XMLID_43_" d="M151.2,460.9c-3.8-0.7-7.3-1.8-9.7-5.2c-2.7-3.9-2.7-8.4-1-12.6c0.2-0.6-0.8-1-1.1-0.5
		c-4.5,8.4,1.5,20.2,11.6,19.6C151.7,462.2,151.9,461.1,151.2,460.9z"/>
	<path id="XMLID_45_" d="M135,360.3c-7.5-0.9-13,6.4-13.3,13.4c-1.2-1.5-2.5-3-4-4.1c0,0,0,0-0.1-0.1c0,0,0,0,0,0c0,0,0,0,0,0
		c-0.8-0.5-1.8,0.4-1.4,1.4c1.5,3.5,4.9,6.8,7.3,9.6c2.2,2.5,4.8,6.5,8.1,7.5c0.9,0.3,1.6-0.8,1.2-1.5c-0.8-1.6-2.2-2.5-3.5-3.8
		c-1.5-1.5-2.9-3-4.2-4.6c-0.7-0.8-1.3-1.6-1.9-2.4c-0.2-6.8,5.2-12.3,11.9-14C136,361.5,135.8,360.4,135,360.3z"/>
	<path id="XMLID_61_" d="M155.5,365.4c-3,6.1-6.4,13.5-14.5,13.2c-2.6-0.1-5.2-1.2-6.8-3.1c1.2-0.1,2.4-0.5,3.6-1.2
		c1-0.6,2.1-1.6,2.9-2.7c3.8-1.9,3.7-7.9-0.8-9.2c-5.6-1.5-9.8,4.5-9.5,9.5c0.3,6.5,7.3,9.8,13.1,8.9c7.1-1.1,12.7-7.9,13.6-14.8
		C157.2,365.1,156,364.4,155.5,365.4z"/>
	<path id="XMLID_44_" d="M173.8,344.6c-2,2.6-4.6,2.6-7.8,0.1c-0.5-0.6-1.4-0.3-1.8,0.2c-1.5,2.3-2.9,4.5-4.4,6.8
		c-1.7,2.6-3.3,7.3-7,4.8c-2.4-1.7-3.7-5.3-3.7-8.1c0-1.1,0-2.5,0.4-3.6c2.2-5.4,6.5-3.4,9.8-1.6c0.8,0.4,1.4-0.7,0.7-1.2
		c-3.4-2.5-8.2-4.6-11.4-0.5c-2.6,3.3-2.2,8.7-0.7,12.3c1.1,2.6,4.5,7.2,8,6.4c1.7-0.4,2.6-2.3,3.4-3.6c2.1-3.1,4-6.3,6.1-9.4
		c3.1,2.6,7.7,2.5,9.9-1.5C175.8,344.8,174.6,343.8,173.8,344.6z"/>
	<path id="XMLID_54_" d="M155,83.6c-0.9-2-3-3.5-4.3-5.1c-1.6-2-2.8-4.3-4.3-6.4c-0.7-1-2.2-0.1-1.7,0.9c0.8,2.5,2.4,4.9,4,7
		c1.4,1.8,3,4.2,5.2,5C154.8,85.4,155.3,84.3,155,83.6z"/>
	<path id="XMLID_53_" d="M219.4,44.6c-0.3-1.3-1.4-2.5-2.1-3.6c-0.8-1.3-1.4-2.6-2.2-3.9c-0.6-1-2.2-0.4-1.9,0.8
		c0.4,1.5,1.2,3,1.9,4.3c0.7,1.3,1.4,2.8,2.6,3.6C218.7,46.3,219.6,45.5,219.4,44.6z"/>
	<path id="XMLID_52_" d="M146.5,86.8c-0.9-1.4-2.2-2.5-3.2-3.9c-1.1-1.5-1.9-3.1-2.6-4.8c-0.4-0.9-1.9-0.6-1.5,0.4
		c1.1,3.3,3.1,7.6,6.2,9.4C146,88.3,146.9,87.5,146.5,86.8z"/>
	<path id="XMLID_51_" d="M223.1,45.7c-0.5-2-1.4-3.9-2.1-5.8c-0.6-1.7-1-3.6-1.9-5.2c0,0,0,0,0,0c-0.3-0.5-1.1-0.4-1.1,0.3
		c0,2,0.8,3.9,1.4,5.7c0.6,1.9,1.2,3.9,2.4,5.5C222.2,47,223.2,46.6,223.1,45.7z"/>
	<path id="XMLID_55_" d="M186.8,334.2c-3.3,2.3-7.4,4.9-11.6,3.1c-4-1.8-3.6-6-0.1-8.1c2.2-1.3,5.7-2.2,8.2-0.9
		c0.6,0.3,1-0.5,0.5-0.9c-5-3.4-16.1,0.8-13.6,7.9c2.6,7.4,14.3,5.4,17.9,0.1C188.5,334.7,187.5,333.7,186.8,334.2z"/>
	<path id="XMLID_56_" d="M195.2,338c-3.9-8.9-12.6-17.5-19.9-23.7c-0.8-0.6-1.8,0.4-1.1,1.1c3.6,3.7,7.1,7.4,10.4,11.3
		c3.3,3.9,5.8,8.5,9.2,12.3C194.6,339.8,195.6,338.8,195.2,338z"/>
	<path id="XMLID_47_" d="M198,330.3c-0.5-0.4-1.3,0-1.1,0.6c0.4,1.6,1.3,3,1.7,4.7c0.4,1.6,0.3,3.3,0.7,4.9c0.2,0.7,1.2,0.6,1.4,0
		C201.7,337.6,200.4,332.2,198,330.3z"/>
	<path id="XMLID_48_" d="M201.4,327.8c-0.1-0.1-0.1-0.1-0.2-0.2c0,0,0,0,0,0l0,0c-0.6-0.3-1.5,0.3-1.1,1.1c0.5,1,1.2,1.8,1.7,2.8
		c0.4,0.9,0.5,2,1.1,2.9c0.3,0.5,1.1,0.4,1.3-0.2C204.7,332.1,203.1,329,201.4,327.8z"/>
</g>
</svg>
